<svg width="365" height="319" xmlns="http://www.w3.org/2000/svg">

 <g>
  <title>background</title>
  <rect fill="none" id="canvas_background" height="602" width="802" y="-1" x="-1"/>
 </g>
 <g>
  <title>Layer 1</title>
  <rect id="svg_1" height="367" width="418" y="-38.0625" x="-40" stroke-opacity="null" stroke="black" fill="#000000"/>
  <path d="m219.37,34.39c0,0 8.64,12.61 8.64,12.61c7.44,9.64 15.13,19.04 23.57,27.83c0,0 54.25,47.17 54.25,47.17c13.67,15.12 18.17,28.98 23.32,48c4.38,16.19 5.92,20.95 5.85,38c-0.11,27.05 -12.05,45.75 -34,60.98c-4.89,3.39 -19.28,13.35 -25,12.28c-1.72,-0.32 -4.38,-1.71 -6,-2.51c-1.72,-0.85 -5.16,-2.47 -6.47,-3.71c-2.55,-2.44 -4.96,-13.32 -5.53,-17.04c12.18,-4.62 21.94,-12.14 32,-20.2c3.63,-2.91 6.63,-5.2 9.68,-8.8c15.32,-18.12 20.52,-48.68 12.62,-71c-2.56,-7.23 -7.56,-14.9 -12.2,-21c-9.56,-12.57 -23.95,-22.21 -36.1,-32.25c-18.71,-15.46 -24.11,-21.06 -39.42,-39.75c-10.5,-12.81 -17.2,-21.11 -19.58,-38c3.99,1.14 11.58,4.37 14.37,7.39zm-73.41,222.68c-1.91,1.14 -4.78,1.76 -6.96,2.3c-3.02,0.76 -5.86,1.55 -9,1.55c-10.8,0.02 -28.08,-9.03 -35.96,-16.13c-13.57,-12.21 -19.35,-28.71 -19.77,-46.53c-0.29,-12.33 -0.19,-21.12 3.01,-33.26c11.8,-44.65 48.9,-77.05 84.72,-103.42c8.95,-6.6 7.51,-10.12 13.39,-17.58c6.06,-7.69 11.97,-10.53 21.61,-11c-2.76,9.45 -8.49,14.92 -14.72,22c-11.01,12.51 -11.99,11.46 -24.28,20.75c-8.71,6.59 -29.12,24.02 -35.24,32.25c-14.12,18.98 -24.43,49.72 -22.82,73.53c0,0 6.06,30.47 6.06,30.47c0,0 12.88,15.61 12.88,15.61c0,0 18.12,13.39 18.12,13.39c0,0 19,5 19,5c-2.21,3.13 -6.84,9.15 -10.04,11.07zm55.34,-190.68c3.71,4.38 3.97,16.58 9.16,25.61c0,0 32.09,56 32.09,56c0,0 5.87,19 5.87,19c2.42,8.5 4.48,17.11 4.58,26c0.2,17.89 -5.26,37.05 -15.1,52c-2.16,3.28 -10.1,13.3 -13.99,13.89c-2.54,0.39 -6.62,-1.97 -8.91,-3.14c-2.14,-1.09 -4.45,-2.14 -5.91,-4.14c-1.66,-2.26 -4.12,-12.3 -5.09,-15.61c19,-15.71 28.89,-39.62 29.34,-64c0.11,-5.76 -0.09,-11.53 -2.04,-17c-2.1,-5.89 -7.7,-14.49 -11.11,-20c0,0 -16.04,-27 -16.04,-27c0,0 -5.78,-10 -5.78,-10c0,0 -11.37,-39 -11.37,-39c3.81,1.09 11.78,4.41 14.3,7.39zm-135.3,204.95c-24.7,-14.62 -46.77,-39.27 -47,-69.34c-0.13,-17.56 3.24,-26.11 9.6,-42c14.1,-35.23 35.38,-60.2 67.4,-80.59c12.54,-7.98 15.66,-13.27 31,-17.41c-0.99,3.5 -4.32,12.15 -6.5,14.83c-5.16,6.35 -22.17,15.11 -29.5,20.84c-14.96,11.7 -35.4,34.61 -44.56,51.33c-7.41,13.52 -7.25,37.49 -2.1,51.87c1.37,3.82 4.48,9.58 6.55,13.12c1.65,2.82 3.14,5.64 5.31,8.1c20.1,22.7 51.05,41.75 80.8,48.4c5.86,1.31 14.91,2.13 21,2.51c-1.49,3.52 -4.82,12.87 -7.41,15.01c-1.56,1.28 -4.66,2.42 -6.59,3.19c-2.6,1.04 -5.21,2.19 -8,2.59c-8.78,1.27 -25.63,-2.26 -33.96,-5.4c-4.46,-1.69 -10.07,-2.41 -13.04,-6.39c-6.57,-0.17 -17.17,-7.21 -23,-10.66zm102.04,-157.34c-0.85,19.1 -2.33,32.4 1.44,51.71c1.73,8.84 5.08,17.26 9.1,25.29c1.68,3.37 5.76,9.49 5.41,13c-0.16,1.58 -1.37,4.45 -1.99,6c-0.7,1.77 -1.96,5.17 -3.07,6.59c-2.15,2.73 -12.36,6.4 -15.93,7.41c-8.6,-13.21 -14.87,-28.76 -16.8,-44.54c0,0 0,-12.46 0,-12.46c-0.69,-10.38 -0.68,-18.65 1.05,-29c1.33,-8.01 4.91,-26.79 10.4,-32.51c2.04,-2.13 9.24,-4.88 12.35,-6.49c0.7,3.83 -1.75,10.23 -1.96,15zm-74.04,129c0,0 1,1 1,1c0,0 0,-1 0,-1c0,0 -1,0 -1,0z" stroke="black" fill="#ffffff" id="Selection #4"/>
 </g>
</svg>