<?xml version="1.0" encoding="UTF-8" standalone="no"?>
<!DOCTYPE svg PUBLIC "-//W3C//DTD SVG 1.1//EN" "http://www.w3.org/Graphics/SVG/1.1/DTD/svg11.dtd">
<svg version="1.1" xmlns="http://www.w3.org/2000/svg" xmlns:xlink="http://www.w3.org/1999/xlink" preserveAspectRatio="xMidYMid meet" viewBox="0 0 285 285" width="285" height="285"><defs><path d="M281 141.87C281 217.77 212.63 279.39 139.14 279.39C65.66 279.39 6 217.77 6 141.87C6 65.97 65.66 4.34 139.14 4.34C212.63 4.34 281 65.97 281 141.87Z" id="b8k6oLajk"></path><path d="M142.27 78.37C137.6 89.4 133.44 95.54 129.78 96.81L185.44 111.78C183.1 106.85 182.82 98.38 184.58 86.39C186.34 74.4 190.15 58.87 196 39.82L157.8 30.65C152.12 51.44 146.94 67.34 142.27 78.37Z" id="bJmbRnLDQ"></path><path d="M177.21 111.19C174.94 110.29 173.18 109.65 171.91 109.29C167.29 107.94 168.39 107.93 161.64 105.95C154.88 103.97 152.09 103.12 144.9 101.36C137.7 99.59 140.84 98.42 132.85 98.88C124.87 99.33 118.45 101.99 109.56 104.21C103.64 105.7 99.56 106.88 97.32 107.77C91.89 109.81 86.15 112.4 80.08 115.53C70.98 120.23 70.84 117.87 60.9 126.56C50.96 135.25 46.52 137.73 40.32 150.28C34.12 162.83 34.37 165.26 36.09 176.77C37.24 184.45 40.84 191.38 46.9 197.57C50.2 201.1 54.26 204.61 59.08 208.09C66.32 213.32 64.47 209.79 72.97 214.5C81.47 219.21 84.56 223.09 92.46 226.79C95.8 228.35 98.34 229.44 100.08 230.05C102.2 230.95 104.67 231.62 107.51 232.06C111.76 232.71 114.78 232.05 117.1 232.68C120.16 233.51 121.91 236.96 127.83 237.89C138.21 239.51 139.51 239.32 148.94 239.78C158.36 240.24 162.34 238.02 169.96 237.79C177.57 237.57 172.32 239.97 179.4 238.87C186.47 237.76 187.67 237.49 193.8 235.6C197.89 234.33 201.27 232.9 203.93 231.3C208.41 228.94 212.61 225.21 216.5 220.1C222.35 212.44 225.09 212.08 227.33 200.64C229.56 189.21 229.58 187.39 225.45 174.38C222.69 165.71 217.81 157.12 210.79 148.61L198.64 129.27L184.01 111.54L177.21 111.19Z" id="cvRjUWqUl"></path><path d="M74.23 216.27L76.83 198.77L80.26 184.76L88.36 158.68L96.8 140.38L112.29 121.02L137.09 100.61" id="a5cyjJpuXW"></path><path d="M166.03 238.32L171.98 229.54L175.1 216.84L178.21 204.14L181.57 190.43L184.01 171.66L183.65 157.59L180.33 140.12L171.04 111.54" id="a55LtE7im"></path><path d="M111.92 230.27L118.21 224.73C119.97 223.19 121.63 220.18 123.19 215.7C124.75 211.21 126.21 205.25 127.58 197.82L133.67 172.99L139.27 150.14L143.65 132.26L152.39 105.95" id="f6A9C8BbDN"></path><path d="M56.66 207.92C63.15 208.91 67.97 208.08 71.11 205.44C74.25 202.8 76.35 199.06 77.39 194.25" id="dyjX3ICif"></path><path d="M82.42 219.43C79.75 217.06 78.07 214.16 77.39 210.72C76.71 207.28 76.71 203.72 77.39 200.04" id="f1mVkRGbWM"></path><path d="M186.97 237.06L178.73 235.21L175.02 232.25L173.49 225.95" id="bE5Lx43ZW"></path><path d="M137.92 238.32C134.18 237.14 131.7 236.12 130.48 235.25C129.25 234.38 128.25 233.66 127.45 233.1L124.09 227.43C123.94 228.75 123.98 227.64 124.2 224.1C124.52 218.79 125.52 207.27 125.39 206.2" id="cRRGmFf0"></path><path d="" id="b3w827j8gY"></path></defs><g><g><g><use xlink:href="#b8k6oLajk" opacity="1" fill="#919779" fill-opacity="1"></use><g><use xlink:href="#b8k6oLajk" opacity="1" fill-opacity="0" stroke="#151515" stroke-width="7" stroke-opacity="1"></use></g></g><g><g><use xlink:href="#bJmbRnLDQ" opacity="1" fill="#e3d7ca" fill-opacity="1"></use><g><use xlink:href="#bJmbRnLDQ" opacity="1" fill-opacity="0" stroke="#171717" stroke-width="16" stroke-opacity="1"></use></g></g><g><use xlink:href="#cvRjUWqUl" opacity="1" fill="#e3d7ca" fill-opacity="1"></use><g><use xlink:href="#cvRjUWqUl" opacity="1" fill-opacity="0" stroke="#171717" stroke-width="16" stroke-opacity="1"></use></g></g><g><use xlink:href="#a5cyjJpuXW" opacity="1" fill="#e3d7ca" fill-opacity="1"></use><g><use xlink:href="#a5cyjJpuXW" opacity="1" fill-opacity="0" stroke="#171717" stroke-width="16" stroke-opacity="1"></use></g></g><g><use xlink:href="#a55LtE7im" opacity="1" fill="#e3d7ca" fill-opacity="1"></use><g><use xlink:href="#a55LtE7im" opacity="1" fill-opacity="0" stroke="#171717" stroke-width="16" stroke-opacity="1"></use></g></g><g><use xlink:href="#f6A9C8BbDN" opacity="1" fill="#e3d7ca" fill-opacity="1"></use><g><use xlink:href="#f6A9C8BbDN" opacity="1" fill-opacity="0" stroke="#171717" stroke-width="16" stroke-opacity="1"></use></g></g><g><use xlink:href="#dyjX3ICif" opacity="1" fill="#e3d7ca" fill-opacity="1"></use><g><use xlink:href="#dyjX3ICif" opacity="1" fill-opacity="0" stroke="#171717" stroke-width="14" stroke-opacity="1"></use></g></g><g><use xlink:href="#f1mVkRGbWM" opacity="1" fill="#e3d7ca" fill-opacity="1"></use><g><use xlink:href="#f1mVkRGbWM" opacity="1" fill-opacity="0" stroke="#171717" stroke-width="14" stroke-opacity="1"></use></g></g><g><use xlink:href="#bE5Lx43ZW" opacity="1" fill="#e3d7ca" fill-opacity="1"></use><g><use xlink:href="#bE5Lx43ZW" opacity="1" fill-opacity="0" stroke="#171717" stroke-width="14" stroke-opacity="1"></use></g></g><g><use xlink:href="#cRRGmFf0" opacity="1" fill="#e3d7ca" fill-opacity="1"></use><g><use xlink:href="#cRRGmFf0" opacity="1" fill-opacity="0" stroke="#171717" stroke-width="14" stroke-opacity="1"></use></g></g><g><use xlink:href="#b3w827j8gY" opacity="1" fill="#e3d7ca" fill-opacity="1"></use><g><use xlink:href="#b3w827j8gY" opacity="1" fill-opacity="0" stroke="#171717" stroke-width="14" stroke-opacity="1"></use></g></g></g></g></g></svg>