<?xml version="1.0" encoding="UTF-8" standalone="no"?>
<!DOCTYPE svg PUBLIC "-//W3C//DTD SVG 1.1//EN" "http://www.w3.org/Graphics/SVG/1.1/DTD/svg11.dtd">
<svg version="1.1" xmlns="http://www.w3.org/2000/svg" xmlns:xlink="http://www.w3.org/1999/xlink" preserveAspectRatio="xMidYMid meet" viewBox="0 0 325 325" width="325" height="325"><defs><path d="M320 162.5C320 249.44 241.68 320.03 157.51 320.03C73.34 320.03 5 249.44 5 162.5C5 75.56 73.34 4.97 157.51 4.97C241.68 4.97 320 75.56 320 162.5Z" id="a6qfx9O0V4"></path><path d="M160.25 99.72C155.58 110.75 151.42 116.89 147.76 118.16L203.41 133.13C201.08 128.2 200.8 119.73 202.56 107.74C204.32 95.74 208.13 80.22 213.98 61.17L175.77 52C170.09 72.79 164.92 88.69 160.25 99.72Z" id="ajHqtAmhF"></path><path d="M195.18 132.54C192.92 131.64 191.15 131 189.89 130.63C185.27 129.29 186.37 129.28 179.61 127.3C172.86 125.31 170.07 124.47 162.87 122.7C155.68 120.94 158.81 119.77 150.83 120.22C142.85 120.68 136.42 123.34 127.54 125.56C121.62 127.04 117.54 128.23 115.3 129.11C109.87 131.16 104.13 133.75 98.06 136.88C88.95 141.58 88.82 139.22 78.88 147.91C68.94 156.6 64.5 159.08 58.3 171.63C52.09 184.18 52.35 186.61 54.07 198.12C55.22 205.8 58.82 212.73 64.87 218.92C68.17 222.45 72.24 225.95 77.06 229.44C84.3 234.67 82.45 231.14 90.95 235.85C99.45 240.56 102.54 244.43 110.44 248.13C113.78 249.7 116.32 250.79 118.06 251.4C120.18 252.3 122.65 252.97 125.49 253.4C129.74 254.06 132.76 253.4 135.07 254.03C138.14 254.86 139.89 258.31 145.81 259.24C156.18 260.86 157.49 260.67 166.92 261.13C176.34 261.59 180.32 259.37 187.94 259.14C195.55 258.91 190.3 261.32 197.37 260.22C204.45 259.11 205.65 258.84 211.78 256.94C215.87 255.68 219.25 254.25 221.91 252.64C226.39 250.29 230.58 246.56 234.48 241.45C240.33 233.79 243.07 233.42 245.31 221.99C247.54 210.56 247.56 208.74 243.42 195.73C240.67 187.06 235.78 178.47 228.77 169.96L216.61 150.62L201.98 132.89L195.18 132.54Z" id="ajXtSkoMc"></path><path d="M92.21 237.62L94.8 220.12L98.24 206.11L106.33 180.03L114.78 161.73L130.27 142.37L155.07 121.96" id="b2YFdQc9A"></path><path d="M184 259.67L189.96 250.88L193.08 238.19L196.19 225.49L199.55 211.78L201.98 193.01L201.63 178.94L198.31 161.47L189.01 132.89" id="e3wAhDrxS"></path><path d="M129.89 251.62L136.19 246.08C137.95 244.54 139.61 241.53 141.17 237.05C142.73 232.56 144.19 226.6 145.55 219.17L151.64 194.34L157.25 171.49L161.63 153.61L170.37 127.3" id="a1XT9EvdAS"></path><path d="M74.64 229.27C81.13 230.26 85.95 229.43 89.09 226.79C92.23 224.14 94.32 220.41 95.37 215.59" id="aGt2hvZxk"></path><path d="M100.4 240.77C97.73 238.41 96.05 235.51 95.37 232.07C94.69 228.63 94.69 225.07 95.37 221.39" id="i3RXG1ip5V"></path><path d="M204.95 258.41L196.71 256.56L192.99 253.59L191.47 247.3" id="bqwCOz6g7"></path><path d="M155.9 259.67C152.16 258.49 149.68 257.47 148.46 256.6C147.23 255.73 146.22 255.01 145.43 254.45L142.06 248.78C141.92 250.1 141.96 248.99 142.18 245.45C142.5 240.14 143.5 228.62 143.36 227.55" id="auVo9dLwB"></path><path d="" id="b2ziPoS0JF"></path></defs><g><g><g><use xlink:href="#a6qfx9O0V4" opacity="1" fill="#919779" fill-opacity="1"></use><g><use xlink:href="#a6qfx9O0V4" opacity="1" fill-opacity="0" stroke="#151515" stroke-width="7" stroke-opacity="1"></use></g></g><g><g><use xlink:href="#ajHqtAmhF" opacity="1" fill="#e3d7ca" fill-opacity="1"></use><g><use xlink:href="#ajHqtAmhF" opacity="1" fill-opacity="0" stroke="#171717" stroke-width="16" stroke-opacity="1"></use></g></g><g><use xlink:href="#ajXtSkoMc" opacity="1" fill="#e3d7ca" fill-opacity="1"></use><g><use xlink:href="#ajXtSkoMc" opacity="1" fill-opacity="0" stroke="#171717" stroke-width="16" stroke-opacity="1"></use></g></g><g><use xlink:href="#b2YFdQc9A" opacity="1" fill="#e3d7ca" fill-opacity="1"></use><g><use xlink:href="#b2YFdQc9A" opacity="1" fill-opacity="0" stroke="#171717" stroke-width="16" stroke-opacity="1"></use></g></g><g><use xlink:href="#e3wAhDrxS" opacity="1" fill="#e3d7ca" fill-opacity="1"></use><g><use xlink:href="#e3wAhDrxS" opacity="1" fill-opacity="0" stroke="#171717" stroke-width="16" stroke-opacity="1"></use></g></g><g><use xlink:href="#a1XT9EvdAS" opacity="1" fill="#e3d7ca" fill-opacity="1"></use><g><use xlink:href="#a1XT9EvdAS" opacity="1" fill-opacity="0" stroke="#171717" stroke-width="16" stroke-opacity="1"></use></g></g><g><use xlink:href="#aGt2hvZxk" opacity="1" fill="#e3d7ca" fill-opacity="1"></use><g><use xlink:href="#aGt2hvZxk" opacity="1" fill-opacity="0" stroke="#171717" stroke-width="14" stroke-opacity="1"></use></g></g><g><use xlink:href="#i3RXG1ip5V" opacity="1" fill="#e3d7ca" fill-opacity="1"></use><g><use xlink:href="#i3RXG1ip5V" opacity="1" fill-opacity="0" stroke="#171717" stroke-width="14" stroke-opacity="1"></use></g></g><g><use xlink:href="#bqwCOz6g7" opacity="1" fill="#e3d7ca" fill-opacity="1"></use><g><use xlink:href="#bqwCOz6g7" opacity="1" fill-opacity="0" stroke="#171717" stroke-width="14" stroke-opacity="1"></use></g></g><g><use xlink:href="#auVo9dLwB" opacity="1" fill="#e3d7ca" fill-opacity="1"></use><g><use xlink:href="#auVo9dLwB" opacity="1" fill-opacity="0" stroke="#171717" stroke-width="14" stroke-opacity="1"></use></g></g><g><use xlink:href="#b2ziPoS0JF" opacity="1" fill="#e3d7ca" fill-opacity="1"></use><g><use xlink:href="#b2ziPoS0JF" opacity="1" fill-opacity="0" stroke="#171717" stroke-width="14" stroke-opacity="1"></use></g></g></g></g></g></svg>