<?xml version="1.0" encoding="UTF-8" standalone="no"?>
<!DOCTYPE svg PUBLIC "-//W3C//DTD SVG 1.1//EN" "http://www.w3.org/Graphics/SVG/1.1/DTD/svg11.dtd">
<svg version="1.1" xmlns="http://www.w3.org/2000/svg" xmlns:xlink="http://www.w3.org/1999/xlink" preserveAspectRatio="xMidYMid meet" viewBox="0 0 250 250" width="250" height="250"><defs><path d="M117.75 84.78C123.32 86.28 167.84 98.25 173.41 99.75C171.07 94.82 170.79 86.35 172.55 74.36C174.31 62.37 178.12 46.84 183.97 27.79C180.15 26.87 149.59 19.54 145.77 18.62C140.09 39.41 134.91 55.31 130.24 66.34C125.57 77.37 121.41 83.51 117.75 84.78Z" id="a13zeynXGk"></path><path d="M117.75 84.78C123.32 86.28 167.84 98.25 173.41 99.75C171.07 94.82 170.79 86.35 172.55 74.36C174.31 62.37 178.12 46.84 183.97 27.79C180.15 26.87 149.59 19.54 145.77 18.62C140.09 39.41 134.91 55.31 130.24 66.34C125.57 77.37 121.41 83.51 117.75 84.78Z" id="agPd0JBb6"></path><path d="M159.88 97.26C155.26 95.91 156.36 95.9 149.61 93.92C142.85 91.94 140.06 91.09 132.87 89.33C125.67 87.56 128.81 86.39 120.82 86.85C112.84 87.3 106.42 89.96 97.53 92.18C91.61 93.67 87.53 94.85 85.29 95.74C79.86 97.78 74.12 100.37 68.05 103.5C58.95 108.2 58.81 105.84 48.87 114.53C38.93 123.22 34.49 125.7 28.29 138.25C22.09 150.8 22.34 153.23 24.06 164.74C25.21 172.42 28.81 179.35 34.87 185.54C38.17 189.07 42.23 192.58 47.05 196.06C54.29 201.29 52.44 197.76 60.94 202.47C69.44 207.18 72.53 211.06 80.43 214.76C83.77 216.32 86.31 217.41 88.05 218.02C90.17 218.92 92.64 219.59 95.48 220.03C99.73 220.68 102.75 220.02 105.07 220.65C108.13 221.48 109.88 224.93 115.8 225.86C126.18 227.48 127.48 227.29 136.91 227.75C146.33 228.21 150.31 225.99 157.93 225.76C165.54 225.54 160.29 227.94 167.37 226.84C174.44 225.73 175.64 225.46 181.77 223.57C185.86 222.3 189.24 220.87 191.9 219.27C196.38 216.91 200.58 213.18 204.47 208.07C210.32 200.41 213.06 200.05 215.3 188.61C217.53 177.18 217.55 175.36 213.42 162.35C210.66 153.68 205.78 145.09 198.76 136.58C197.95 135.29 193.9 128.84 186.61 117.24L171.98 99.51L165.18 99.16C162.49 98.13 160.73 97.5 159.88 97.26Z" id="f6dI8Jay7f"></path><path d="M159.88 97.26C155.26 95.91 156.36 95.9 149.61 93.92C142.85 91.94 140.06 91.09 132.87 89.33C125.67 87.56 128.81 86.39 120.82 86.85C112.84 87.3 106.42 89.96 97.53 92.18C91.61 93.67 87.53 94.85 85.29 95.74C79.86 97.78 74.12 100.37 68.05 103.5C58.95 108.2 58.81 105.84 48.87 114.53C38.93 123.22 34.49 125.7 28.29 138.25C22.09 150.8 22.34 153.23 24.06 164.74C25.21 172.42 28.81 179.35 34.87 185.54C38.17 189.07 42.23 192.58 47.05 196.06C54.29 201.29 52.44 197.76 60.94 202.47C69.44 207.18 72.53 211.06 80.43 214.76C83.77 216.32 86.31 217.41 88.05 218.02C90.17 218.92 92.64 219.59 95.48 220.03C99.73 220.68 102.75 220.02 105.07 220.65C108.13 221.48 109.88 224.93 115.8 225.86C126.18 227.48 127.48 227.29 136.91 227.75C146.33 228.21 150.31 225.99 157.93 225.76C165.54 225.54 160.29 227.94 167.37 226.84C174.44 225.73 175.64 225.46 181.77 223.57C185.86 222.3 189.24 220.87 191.9 219.27C196.38 216.91 200.58 213.18 204.47 208.07C210.32 200.41 213.06 200.05 215.3 188.61C217.53 177.18 217.55 175.36 213.42 162.35C210.66 153.68 205.78 145.09 198.76 136.58C197.95 135.29 193.9 128.84 186.61 117.24L171.98 99.51L165.18 99.16C162.49 98.13 160.73 97.5 159.88 97.26Z" id="d3m3U8r1g"></path><path d="M62.2 204.24L64.8 186.74L68.23 172.73L76.33 146.65L84.77 128.35L100.26 108.99L125.06 88.58" id="hEX3KFYBI"></path><path d="M62.2 204.24L64.8 186.74L68.23 172.73L76.33 146.65L84.77 128.35L100.26 108.99L125.06 88.58" id="chnHr3SLd"></path><path d="M154 226.29L159.95 217.51L163.07 204.81L166.18 192.11L169.54 178.4L171.98 159.63L171.62 145.56L168.3 128.09L159.01 99.51" id="a1rQzmOZLh"></path><path d="M154 226.29L159.95 217.51L163.07 204.81L166.18 192.11L169.54 178.4L171.98 159.63L171.62 145.56L168.3 128.09L159.01 99.51" id="b54ACjyX1N"></path><path d="M99.89 218.24C103.66 214.92 105.76 213.07 106.18 212.7C107.94 211.16 109.6 208.15 111.16 203.67C112.72 199.18 114.18 193.22 115.55 185.79C115.96 184.13 117.99 175.86 121.64 160.96L127.24 138.11L131.62 120.23L140.36 93.92" id="c4FgIHWDJg"></path><path d="M99.89 218.24C103.66 214.92 105.76 213.07 106.18 212.7C107.94 211.16 109.6 208.15 111.16 203.67C112.72 199.18 114.18 193.22 115.55 185.79C115.96 184.13 117.99 175.86 121.64 160.96L127.24 138.11L131.62 120.23L140.36 93.92" id="bQfzifLqk"></path><path d="M44.63 195.89C51.12 196.88 55.94 196.05 59.08 193.41C62.22 190.77 64.32 187.03 65.36 182.22" id="f5B4O3xbC"></path><path d="M44.63 195.89C51.12 196.88 55.94 196.05 59.08 193.41C62.22 190.77 64.32 187.03 65.36 182.22" id="f2p0C5VaAu"></path><path d="M70.39 207.4C67.72 205.03 66.04 202.13 65.36 198.69C64.68 195.25 64.68 191.69 65.36 188.01" id="h2fX4H0SkC"></path><path d="M70.39 207.4C67.72 205.03 66.04 202.13 65.36 198.69C64.68 195.25 64.68 191.69 65.36 188.01" id="bkcnrNH1V"></path><path d="M174.94 225.03L166.7 223.18L162.99 220.22L161.46 213.92" id="cQAm3XyTQ"></path><path d="M174.94 225.03L166.7 223.18L162.99 220.22L161.46 213.92" id="a8utGWxZk"></path><path d="M125.89 226.29C122.15 225.11 119.67 224.09 118.45 223.22C117.22 222.35 116.22 221.63 115.42 221.07C115.08 220.5 112.4 215.97 112.06 215.4C111.91 216.72 111.95 215.61 112.17 212.07C112.49 206.76 113.49 195.24 113.36 194.17" id="kuA7iDoao"></path><path d="M125.89 226.29C122.15 225.11 119.67 224.09 118.45 223.22C117.22 222.35 116.22 221.63 115.42 221.07C115.08 220.5 112.4 215.97 112.06 215.4C111.91 216.72 111.95 215.61 112.17 212.07C112.49 206.76 113.49 195.24 113.36 194.17" id="c1ws6MtQtS"></path></defs><g><g><g><use xlink:href="#a13zeynXGk" opacity="1" fill="#e3d7ca" fill-opacity="1"></use><g><use xlink:href="#a13zeynXGk" opacity="1" fill-opacity="0" stroke="#000000" stroke-width="1" stroke-opacity="0"></use></g></g><g><use xlink:href="#agPd0JBb6" opacity="1" fill="#000000" fill-opacity="0"></use><g><use xlink:href="#agPd0JBb6" opacity="1" fill-opacity="0" stroke="#171717" stroke-width="16" stroke-opacity="1"></use></g></g><g><use xlink:href="#f6dI8Jay7f" opacity="1" fill="#e3d7ca" fill-opacity="1"></use><g><use xlink:href="#f6dI8Jay7f" opacity="1" fill-opacity="0" stroke="#000000" stroke-width="1" stroke-opacity="0"></use></g></g><g><use xlink:href="#d3m3U8r1g" opacity="1" fill="#000000" fill-opacity="0"></use><g><use xlink:href="#d3m3U8r1g" opacity="1" fill-opacity="0" stroke="#171717" stroke-width="16" stroke-opacity="1"></use></g></g><g><use xlink:href="#hEX3KFYBI" opacity="1" fill="#e3d7ca" fill-opacity="1"></use><g><use xlink:href="#hEX3KFYBI" opacity="1" fill-opacity="0" stroke="#000000" stroke-width="1" stroke-opacity="0"></use></g></g><g><use xlink:href="#chnHr3SLd" opacity="1" fill="#000000" fill-opacity="0"></use><g><use xlink:href="#chnHr3SLd" opacity="1" fill-opacity="0" stroke="#171717" stroke-width="16" stroke-opacity="1"></use></g></g><g><use xlink:href="#a1rQzmOZLh" opacity="1" fill="#e3d7ca" fill-opacity="1"></use><g><use xlink:href="#a1rQzmOZLh" opacity="1" fill-opacity="0" stroke="#000000" stroke-width="1" stroke-opacity="0"></use></g></g><g><use xlink:href="#b54ACjyX1N" opacity="1" fill="#000000" fill-opacity="0"></use><g><use xlink:href="#b54ACjyX1N" opacity="1" fill-opacity="0" stroke="#171717" stroke-width="16" stroke-opacity="1"></use></g></g><g><use xlink:href="#c4FgIHWDJg" opacity="1" fill="#e3d7ca" fill-opacity="1"></use><g><use xlink:href="#c4FgIHWDJg" opacity="1" fill-opacity="0" stroke="#000000" stroke-width="1" stroke-opacity="0"></use></g></g><g><use xlink:href="#bQfzifLqk" opacity="1" fill="#000000" fill-opacity="0"></use><g><use xlink:href="#bQfzifLqk" opacity="1" fill-opacity="0" stroke="#171717" stroke-width="16" stroke-opacity="1"></use></g></g><g><use xlink:href="#f5B4O3xbC" opacity="1" fill="#e3d7ca" fill-opacity="1"></use><g><use xlink:href="#f5B4O3xbC" opacity="1" fill-opacity="0" stroke="#000000" stroke-width="1" stroke-opacity="0"></use></g></g><g><use xlink:href="#f2p0C5VaAu" opacity="1" fill="#000000" fill-opacity="0"></use><g><use xlink:href="#f2p0C5VaAu" opacity="1" fill-opacity="0" stroke="#171717" stroke-width="14" stroke-opacity="1"></use></g></g><g><use xlink:href="#h2fX4H0SkC" opacity="1" fill="#e3d7ca" fill-opacity="1"></use><g><use xlink:href="#h2fX4H0SkC" opacity="1" fill-opacity="0" stroke="#000000" stroke-width="1" stroke-opacity="0"></use></g></g><g><use xlink:href="#bkcnrNH1V" opacity="1" fill="#000000" fill-opacity="0"></use><g><use xlink:href="#bkcnrNH1V" opacity="1" fill-opacity="0" stroke="#171717" stroke-width="14" stroke-opacity="1"></use></g></g><g><use xlink:href="#cQAm3XyTQ" opacity="1" fill="#e3d7ca" fill-opacity="1"></use><g><use xlink:href="#cQAm3XyTQ" opacity="1" fill-opacity="0" stroke="#000000" stroke-width="1" stroke-opacity="0"></use></g></g><g><use xlink:href="#a8utGWxZk" opacity="1" fill="#000000" fill-opacity="0"></use><g><use xlink:href="#a8utGWxZk" opacity="1" fill-opacity="0" stroke="#171717" stroke-width="14" stroke-opacity="1"></use></g></g><g><use xlink:href="#kuA7iDoao" opacity="1" fill="#e3d7ca" fill-opacity="1"></use><g><use xlink:href="#kuA7iDoao" opacity="1" fill-opacity="0" stroke="#000000" stroke-width="1" stroke-opacity="0"></use></g></g><g><use xlink:href="#c1ws6MtQtS" opacity="1" fill="#000000" fill-opacity="0"></use><g><use xlink:href="#c1ws6MtQtS" opacity="1" fill-opacity="0" stroke="#171717" stroke-width="14" stroke-opacity="1"></use></g></g></g></g></svg>