<?xml version="1.0" encoding="UTF-8" standalone="no"?>
<!DOCTYPE svg PUBLIC "-//W3C//DTD SVG 1.1//EN" "http://www.w3.org/Graphics/SVG/1.1/DTD/svg11.dtd">
<svg version="1.1" xmlns="http://www.w3.org/2000/svg" xmlns:xlink="http://www.w3.org/1999/xlink" preserveAspectRatio="xMidYMid meet" viewBox="0 0 280 280" width="280" height="280"><defs><path d="M149.38 85.78C143.76 101.87 139.22 111.03 135.76 113.27L184.1 127.31C182.62 120.67 183.44 108.8 186.55 91.72C189.67 74.64 195.08 52.34 202.79 24.83L169.47 16.74C161.69 46.68 155 69.69 149.38 85.78Z" id="aN9xqA8t0"></path><path d="M181.08 126.34C178.76 125.4 176.95 124.75 175.66 124.37C172.5 123.44 169 122.74 165.14 122.26L148 117.23C145.23 114.49 141.12 113.29 135.68 113.6C127.5 114.08 124.4 116.82 115.31 119.12C109.25 120.66 103.91 121.88 99.3 122.8C93.75 124.91 87.87 127.59 81.66 130.83C72.34 135.69 72.2 133.25 62.03 142.24C51.85 151.22 47.31 153.79 40.96 166.77C34.61 179.76 34.87 182.27 36.63 194.18C37.81 202.12 41.49 209.29 47.69 215.69C51.07 219.34 55.23 222.96 60.16 226.57C67.57 231.98 65.68 228.33 74.38 233.2C83.08 238.07 86.25 242.08 94.33 245.91C97.75 247.53 100.35 248.65 102.13 249.29C104.3 250.22 106.83 250.91 109.74 251.36C114.09 252.04 117.18 251.35 119.55 252C122.69 252.87 124.48 256.43 130.53 257.39C141.16 259.07 142.49 258.87 152.14 259.35C161.79 259.82 165.86 257.53 173.66 257.29C181.45 257.06 176.08 259.55 183.32 258.4C190.56 257.26 191.79 256.98 198.07 255.02C202.25 253.71 205.71 252.23 208.43 250.57C213.02 248.14 217.31 244.28 221.3 239C227.29 231.07 230.09 230.69 232.38 218.87C234.67 207.04 234.69 205.16 230.46 191.7C227.64 182.73 222.64 173.85 215.46 165.05L200.77 145.04L184.06 127.83L181.08 126.34Z" id="aHi594OSR"></path><path d="M75.67 235.04L78.33 216.93L81.84 202.43L90.13 175.46L98.77 156.53L114.63 136.51L140.02 115.39" id="a17yRGD43"></path><path d="M169.63 257.84L175.73 248.75L178.92 235.62L182.11 222.49L185.55 208.3L188.04 188.88L187.67 174.33L184.27 156.27L174.76 126.7" id="arrSggfuk"></path><path d="M114.27 252.77L120.33 246.76C122.02 245.1 123.66 241.89 125.25 237.13C126.83 232.37 128.36 226.07 129.84 218.21L136.22 191.93L142.09 167.75L146.68 148.83L155.58 120.92" id="a1hQGhO5tp"></path><path d="M57.69 226.4C64.33 227.42 69.26 226.56 72.48 223.83C75.69 221.09 77.84 217.23 78.91 212.25" id="a1af8MwzaS"></path><path d="M84.05 238.29C81.32 235.85 79.6 232.85 78.91 229.29C78.21 225.74 78.21 222.05 78.91 218.24" id="adZAfhLdQ"></path><path d="M191.07 256.54L182.64 254.62L178.83 251.56L177.28 245.04" id="b3FeS4gpg"></path><path d="M140.86 257.84C137.04 256.62 134.5 255.56 133.25 254.66C131.99 253.76 130.96 253.02 130.15 252.44L126.7 246.57C126.56 247.94 126.6 246.79 126.82 243.13C127.15 237.64 128.17 225.72 128.03 224.61" id="a68CmEVqhO"></path><path d="M126.62 235.04C124.59 237.49 122.95 239.56 121.69 241.23C119.79 243.73 122.9 243.37 119.04 245.04C115.18 246.71 111.75 247.28 106.25 247.92C102.59 248.34 99.53 248.23 97.06 247.59" id="fafgqGxvI"></path><path d="" id="b2u3Tb65j"></path></defs><g><g><g><g><use xlink:href="#aN9xqA8t0" opacity="1" fill-opacity="0" stroke="#000000" stroke-width="16" stroke-opacity="1"></use></g></g><g><g><use xlink:href="#aHi594OSR" opacity="1" fill-opacity="0" stroke="#000000" stroke-width="16" stroke-opacity="1"></use></g></g><g><g><use xlink:href="#a17yRGD43" opacity="1" fill-opacity="0" stroke="#000000" stroke-width="16" stroke-opacity="1"></use></g></g><g><g><use xlink:href="#arrSggfuk" opacity="1" fill-opacity="0" stroke="#000000" stroke-width="16" stroke-opacity="1"></use></g></g><g><g><use xlink:href="#a1hQGhO5tp" opacity="1" fill-opacity="0" stroke="#000000" stroke-width="16" stroke-opacity="1"></use></g></g><g><g><use xlink:href="#a1af8MwzaS" opacity="1" fill-opacity="0" stroke="#000000" stroke-width="14" stroke-opacity="1"></use></g></g><g><g><use xlink:href="#adZAfhLdQ" opacity="1" fill-opacity="0" stroke="#000000" stroke-width="14" stroke-opacity="1"></use></g></g><g><g><use xlink:href="#b3FeS4gpg" opacity="1" fill-opacity="0" stroke="#000000" stroke-width="14" stroke-opacity="1"></use></g></g><g><g><use xlink:href="#a68CmEVqhO" opacity="1" fill-opacity="0" stroke="#000000" stroke-width="14" stroke-opacity="1"></use></g></g><g><g><use xlink:href="#fafgqGxvI" opacity="1" fill-opacity="0" stroke="#000000" stroke-width="9" stroke-opacity="1"></use></g></g><g><g><use xlink:href="#b2u3Tb65j" opacity="1" fill-opacity="0" stroke="#000000" stroke-width="14" stroke-opacity="1"></use></g></g></g></g></svg>