<svg xmlns="http://www.w3.org/2000/svg" width="365" height="319" style=""><rect id="backgroundrect" width="100%" height="100%" x="0" y="0" fill="none" stroke="none"/>
  
<g class="currentLayer" style=""><title>Layer 1</title><path id="Selection #4" fill="#ffffff" stroke="#ffffff" stroke-width="1" d="M219.37,34.39C219.37,34.39 228.01,47 228.01,47C235.45,56.64 243.14,66.04 251.58,74.83C251.58,74.83 305.83,122 305.83,122C319.5,137.12 324,150.98 329.15,170C333.53,186.19 335.07,190.95 335,208C334.89,235.05 322.95,253.75 301,268.98C296.11,272.37 281.72,282.33 276,281.26C274.28,280.94 271.62,279.55 270,278.75C268.28,277.9 264.84,276.28 263.53,275.04C260.98,272.6 258.57,261.72 258,258C270.18,253.38 279.94,245.86 290,237.8C293.63,234.89 296.63,232.6 299.68,229C315,210.88 320.2,180.32 312.3,158C309.74,150.77 304.74,143.1 300.1,137C290.54,124.43 276.15,114.79 264,104.75C245.29,89.29 239.89,83.69 224.58,65C214.08,52.19 207.38,43.89 205,27C208.99,28.14 216.58,31.37 219.37,34.39zM145.96,257.07C144.05,258.21 141.18,258.83 139,259.37C135.98,260.13 133.14,260.92 130,260.92C119.2,260.94 101.92,251.89 94.04,244.79C80.47,232.58 74.69,216.08 74.27,198.26C73.98,185.93 74.08,177.14 77.28,165C89.08,120.35 126.18,87.95 162,61.58C170.95,54.98 169.51,51.46 175.39,44C181.45,36.31 187.36,33.47 197,33C194.24,42.45 188.51,47.92 182.28,55C171.27,67.51 170.29,66.46 158,75.75C149.29,82.34 128.88,99.77 122.76,108C108.64,126.98 98.33,157.72 99.94,181.53C99.94,181.53 106,212 106,212C106,212 118.88,227.61 118.88,227.61C118.88,227.61 137,241 137,241C137,241 156,246 156,246C153.79,249.13 149.16,255.15 145.96,257.07zM201.3,66.39C205.01,70.77 205.27,82.97 210.46,92C210.46,92 242.55,148 242.55,148C242.55,148 248.42,167 248.42,167C250.84,175.5 252.9,184.11 253,193C253.2,210.89 247.74,230.05 237.9,245C235.74,248.28 227.8,258.3 223.91,258.89C221.37,259.28 217.29,256.92 215,255.75C212.86,254.66 210.55,253.61 209.09,251.61C207.43,249.35 204.97,239.31 204,236C223,220.29 232.89,196.38 233.34,172C233.45,166.24 233.25,160.47 231.3,155C229.2,149.11 223.6,140.51 220.19,135C220.19,135 204.15,108 204.15,108C204.15,108 198.37,98 198.37,98C198.37,98 187,59 187,59C190.81,60.09 198.78,63.41 201.3,66.39zM66,271.34C41.3,256.72 19.23,232.07 19,202C18.87,184.44 22.24,175.89 28.6,160C42.7,124.77 63.98,99.8 96,79.41C108.54,71.43 111.66,66.14 127,62C126.01,65.5 122.68,74.15 120.5,76.83C115.34,83.18 98.33,91.94 91,97.67C76.04,109.37 55.6,132.28 46.44,149C39.03,162.52 39.19,186.49 44.34,200.87C45.71,204.69 48.82,210.45 50.89,213.99C52.54,216.81 54.03,219.63 56.2,222.09C76.3,244.79 107.25,263.84 137,270.49C142.86,271.8 151.91,272.62 158,273C156.51,276.52 153.18,285.87 150.59,288.01C149.03,289.29 145.93,290.43 144,291.2C141.4,292.24 138.79,293.39 136,293.79C127.22,295.06 110.37,291.53 102.04,288.39C97.58,286.7 91.97,285.98 89,282C82.43,281.83 71.83,274.79 66,271.34zM168.04,114C167.19,133.1 165.71,146.4 169.48,165.71C171.21,174.55 174.56,182.97 178.58,191C180.26,194.37 184.34,200.49 183.99,204C183.83,205.58 182.62,208.45 182,210C181.3,211.77 180.04,215.17 178.93,216.59C176.78,219.32 166.57,222.99 163,224C154.4,210.79 148.13,195.24 146.2,179.46C146.2,179.46 146.2,167 146.2,167C145.51,156.62 145.52,148.35 147.25,138C148.58,129.99 152.16,111.21 157.65,105.49C159.69,103.36 166.89,100.61 170,99C170.7,102.83 168.25,109.23 168.04,114zM94,243C94,243 95,244 95,244C95,244 95,243 95,243C95,243 94,243 94,243z" class="" fill-opacity="1" stroke-opacity="1"/></g></svg>